<?xml version="1.0" encoding="UTF-8" standalone="no"?>
<!DOCTYPE svg PUBLIC "-//W3C//DTD SVG 20010904//EN"
              "http://www.w3.org/TR/2001/REC-SVG-20010904/DTD/svg10.dtd">

<svg xmlns="http://www.w3.org/2000/svg"
     width="1695.16mm" height="1522.36mm"
     viewBox="0 0 6406 5753">
  <path id="Auswahl"
        fill="none" stroke="black" stroke-width="1"
        d="M 3410.00,2438.00
           C 3402.69,2430.59 3412.15,2420.81 3414.37,2413.00
             3415.64,2408.52 3414.25,2404.20 3416.02,2401.22
             3416.02,2401.22 3423.00,2395.00 3423.00,2395.00
             3421.42,2393.65 3420.21,2392.83 3419.39,2390.91
             3417.56,2387.93 3417.36,2379.96 3419.39,2377.27
             3420.43,2376.27 3421.61,2375.48 3422.96,2375.48
             3427.46,2375.48 3426.99,2382.04 3427.00,2385.00
             3429.98,2382.18 3435.87,2376.65 3437.26,2373.00
             3438.34,2370.18 3438.00,2362.38 3438.00,2359.00
             3438.00,2359.00 3438.00,2332.00 3438.00,2332.00
             3438.01,2328.15 3437.86,2324.58 3439.57,2321.00
             3442.32,2315.23 3448.21,2312.33 3452.20,2305.00
             3458.75,2292.99 3454.57,2284.14 3456.43,2277.00
             3457.25,2273.81 3460.11,2270.33 3461.67,2267.00
             3463.92,2262.21 3464.86,2254.13 3463.58,2249.00
             3461.23,2239.52 3448.20,2232.13 3439.00,2231.91
             3439.00,2231.91 3423.00,2231.91 3423.00,2231.91
             3415.58,2230.92 3417.85,2229.02 3406.00,2229.00
             3406.00,2229.00 3384.00,2229.00 3384.00,2229.00
             3370.80,2228.98 3372.71,2226.13 3363.00,2226.00
             3363.00,2226.00 3344.00,2226.00 3344.00,2226.00
             3333.60,2225.98 3336.56,2224.97 3330.00,2224.18
             3330.00,2224.18 3319.00,2223.38 3319.00,2223.38
             3309.39,2221.58 3309.42,2220.02 3298.00,2219.90
             3298.00,2219.90 3277.00,2219.90 3277.00,2219.90
             3271.16,2218.95 3271.83,2217.11 3263.00,2217.00
             3263.00,2217.00 3257.00,2217.00 3257.00,2217.00
             3244.88,2216.77 3246.65,2208.58 3243.77,2200.00
             3243.77,2200.00 3237.51,2181.00 3237.51,2181.00
             3237.51,2181.00 3236.62,2174.00 3236.62,2174.00
             3236.62,2174.00 3234.53,2167.00 3234.53,2167.00
             3233.71,2163.36 3234.01,2154.21 3234.00,2150.00
             3233.98,2138.28 3232.78,2141.35 3228.52,2132.00
             3228.52,2132.00 3224.53,2123.00 3224.53,2123.00
             3224.53,2123.00 3219.42,2115.00 3219.42,2115.00
             3217.65,2111.45 3217.29,2107.76 3216.26,2104.00
             3214.50,2097.63 3211.08,2086.20 3210.84,2080.00
             3210.84,2080.00 3210.84,2071.00 3210.84,2071.00
             3208.86,2060.07 3200.07,2043.80 3200.00,2030.00
             3200.00,2030.00 3200.00,2009.00 3200.00,2009.00
             3200.00,2009.00 3198.00,1989.00 3198.00,1989.00
             3197.99,1984.79 3198.31,1973.42 3197.47,1970.00
             3195.46,1961.84 3188.99,1962.68 3188.65,1955.99
             3188.24,1947.88 3190.48,1930.79 3192.78,1923.00
             3195.14,1915.01 3197.87,1915.12 3198.00,1905.00
             3198.05,1900.74 3197.59,1890.52 3198.65,1887.00
             3200.78,1879.89 3209.64,1866.70 3210.27,1865.00
             3211.33,1862.13 3210.96,1856.26 3211.00,1853.00
             3211.14,1841.97 3216.57,1833.39 3221.35,1824.00
             3221.35,1824.00 3224.85,1817.00 3224.85,1817.00
             3224.85,1817.00 3232.15,1808.00 3232.15,1808.00
             3234.09,1804.73 3233.65,1802.26 3235.13,1799.00
             3235.13,1799.00 3245.97,1780.00 3245.97,1780.00
             3245.97,1780.00 3248.61,1772.00 3248.61,1772.00
             3250.72,1766.79 3258.09,1753.44 3261.53,1749.00
             3261.53,1749.00 3295.57,1714.00 3295.57,1714.00
             3298.28,1710.28 3297.53,1708.71 3298.99,1705.00
             3298.99,1705.00 3306.96,1691.02 3306.96,1691.02
             3311.24,1684.69 3314.96,1685.70 3317.31,1680.90
             3317.31,1680.90 3323.15,1668.00 3323.15,1668.00
             3324.38,1664.31 3323.57,1661.80 3325.45,1658.00
             3325.45,1658.00 3339.38,1638.00 3339.38,1638.00
             3341.42,1635.45 3345.10,1631.66 3348.00,1630.17
             3351.08,1628.59 3354.77,1629.12 3357.35,1626.49
             3360.72,1623.06 3358.78,1619.44 3364.21,1613.00
             3372.03,1603.73 3402.18,1574.80 3412.00,1567.56
             3412.00,1567.56 3435.00,1556.90 3435.00,1556.90
             3438.08,1555.82 3441.08,1555.58 3443.91,1553.77
             3451.64,1548.84 3447.58,1541.27 3455.04,1537.31
             3455.04,1537.31 3475.00,1530.31 3475.00,1530.31
             3475.00,1530.31 3484.00,1526.12 3484.00,1526.12
             3484.00,1526.12 3494.00,1522.69 3494.00,1522.69
             3494.00,1522.69 3506.00,1517.36 3506.00,1517.36
             3512.88,1515.12 3513.44,1517.00 3521.00,1513.69
             3521.00,1513.69 3533.00,1508.68 3533.00,1508.68
             3533.00,1508.68 3542.00,1503.72 3542.00,1503.72
             3542.00,1503.72 3551.00,1501.89 3551.00,1501.89
             3551.00,1501.89 3561.00,1497.09 3561.00,1497.09
             3561.00,1497.09 3583.00,1489.56 3583.00,1489.56
             3592.68,1486.03 3600.10,1480.15 3611.00,1480.00
             3615.47,1479.94 3625.20,1480.34 3629.00,1479.47
             3629.00,1479.47 3640.00,1475.34 3640.00,1475.34
             3651.62,1471.28 3663.65,1468.02 3676.00,1468.00
             3690.51,1467.98 3685.71,1463.16 3699.00,1463.00
             3699.00,1463.00 3736.00,1463.00 3736.00,1463.00
             3748.20,1463.02 3746.18,1464.82 3753.00,1466.04
             3753.00,1466.04 3760.00,1466.04 3760.00,1466.04
             3760.00,1466.04 3774.00,1468.81 3774.00,1468.81
             3784.39,1470.94 3785.29,1475.00 3793.00,1477.21
             3797.17,1478.41 3804.42,1477.95 3809.00,1478.00
             3809.00,1478.00 3825.00,1480.00 3825.00,1480.00
             3825.00,1480.00 3837.00,1480.00 3837.00,1480.00
             3846.82,1480.05 3848.88,1484.10 3858.00,1486.98
             3858.00,1486.98 3871.00,1490.82 3871.00,1490.82
             3871.00,1490.82 3879.00,1491.47 3879.00,1491.47
             3890.63,1493.64 3883.88,1493.84 3898.00,1494.00
             3898.00,1494.00 3921.00,1497.00 3921.00,1497.00
             3932.68,1497.02 3931.39,1497.67 3942.00,1499.54
             3942.00,1499.54 3951.00,1500.72 3951.00,1500.72
             3951.00,1500.72 3965.00,1508.91 3965.00,1508.91
             3965.00,1508.91 3980.00,1515.55 3980.00,1515.55
             3994.40,1521.36 3996.22,1517.23 4003.00,1521.09
             4007.74,1523.78 4013.91,1531.61 4019.00,1535.47
             4025.08,1540.08 4029.15,1538.85 4037.00,1545.33
             4037.00,1545.33 4056.70,1565.00 4056.70,1565.00
             4056.70,1565.00 4065.18,1575.91 4065.18,1575.91
             4065.18,1575.91 4078.82,1587.09 4078.82,1587.09
             4078.82,1587.09 4088.17,1599.00 4088.17,1599.00
             4092.85,1604.24 4099.04,1609.36 4103.06,1615.00
             4103.06,1615.00 4109.39,1626.00 4109.39,1626.00
             4109.39,1626.00 4127.73,1645.00 4127.73,1645.00
             4127.73,1645.00 4136.43,1660.00 4136.43,1660.00
             4140.82,1666.62 4150.11,1675.11 4156.00,1681.00
             4159.15,1684.15 4164.16,1689.63 4168.00,1691.55
             4173.06,1694.08 4177.42,1692.16 4182.00,1693.70
             4185.50,1694.88 4190.02,1698.69 4193.00,1700.99
             4202.40,1708.25 4207.84,1712.08 4208.00,1725.00
             4208.17,1739.17 4208.87,1731.99 4211.36,1740.01
             4211.36,1740.01 4212.74,1746.96 4212.74,1746.96
             4214.16,1750.50 4217.14,1751.78 4218.83,1755.04
             4220.37,1758.02 4219.98,1762.65 4220.00,1766.00
             4220.06,1778.06 4222.67,1776.44 4224.44,1783.00
             4224.44,1783.00 4225.41,1791.00 4225.41,1791.00
             4225.41,1791.00 4228.31,1798.00 4228.31,1798.00
             4228.31,1798.00 4229.64,1807.00 4229.64,1807.00
             4229.64,1807.00 4235.09,1820.00 4235.09,1820.00
             4235.09,1820.00 4242.73,1837.00 4242.73,1837.00
             4247.24,1844.30 4250.86,1843.68 4251.00,1854.00
             4251.05,1858.23 4250.70,1865.14 4251.52,1869.00
             4252.62,1874.20 4255.48,1880.51 4253.40,1885.98
             4250.96,1892.42 4245.40,1891.52 4240.00,1892.30
             4233.68,1893.21 4225.79,1896.13 4220.43,1890.58
             4217.17,1887.21 4218.51,1883.08 4217.44,1879.00
             4216.32,1874.69 4209.26,1862.43 4205.91,1859.47
             4196.61,1851.25 4189.33,1853.04 4182.00,1848.15
             4182.00,1848.15 4151.04,1818.00 4151.04,1818.00
             4143.73,1810.25 4145.10,1807.47 4143.70,1798.00
             4143.70,1798.00 4141.97,1790.00 4141.97,1790.00
             4141.97,1790.00 4141.97,1784.00 4141.97,1784.00
             4140.88,1778.96 4137.74,1777.39 4136.38,1772.00
             4136.38,1772.00 4133.45,1756.00 4133.45,1756.00
             4132.47,1752.32 4130.08,1749.32 4128.32,1746.00
             4124.60,1738.99 4126.09,1737.51 4119.96,1731.00
             4117.45,1728.34 4114.17,1724.89 4111.00,1723.09
             4106.56,1720.55 4086.42,1716.07 4081.00,1716.00
             4081.00,1716.00 4070.00,1716.00 4070.00,1716.00
             4067.76,1716.01 4065.11,1715.93 4063.00,1716.74
             4058.74,1718.36 4049.66,1728.34 4046.00,1732.00
             4042.49,1735.51 4037.88,1739.50 4035.80,1744.00
             4031.70,1752.88 4033.96,1756.08 4032.54,1764.00
             4030.80,1773.66 4029.02,1774.55 4029.00,1786.00
             4029.00,1786.00 4029.00,1830.00 4029.00,1830.00
             4028.98,1837.80 4028.18,1841.67 4019.00,1840.94
             4012.25,1840.41 4006.86,1832.50 4002.00,1828.17
             3998.48,1825.03 3990.18,1819.46 3986.00,1816.92
             3982.67,1814.90 3980.30,1814.02 3977.00,1811.47
             3968.21,1804.70 3966.23,1797.17 3954.00,1797.00
             3954.00,1797.00 3936.00,1797.00 3936.00,1797.00
             3924.32,1797.02 3926.29,1798.76 3917.00,1803.60
             3912.54,1805.92 3910.04,1805.74 3906.39,1810.05
             3902.49,1814.66 3901.67,1820.07 3899.13,1824.00
             3896.85,1827.52 3893.08,1830.69 3890.32,1834.00
             3890.32,1834.00 3882.13,1845.00 3882.13,1845.00
             3878.43,1849.93 3878.47,1852.81 3874.79,1856.96
             3874.79,1856.96 3864.00,1866.09 3864.00,1866.09
             3864.00,1866.09 3849.00,1880.67 3849.00,1880.67
             3844.72,1884.21 3841.14,1885.39 3837.22,1890.02
             3833.83,1894.02 3832.75,1900.07 3830.64,1905.00
             3828.22,1910.65 3825.38,1912.21 3823.85,1916.00
             3823.85,1916.00 3822.00,1939.00 3822.00,1939.00
             3821.99,1945.33 3821.06,1956.67 3824.09,1962.00
             3829.18,1970.96 3838.65,1972.79 3838.98,1985.00
             3839.25,1994.37 3837.58,1993.92 3837.09,2000.00
             3836.71,2004.80 3837.70,2008.33 3835.59,2013.00
             3835.59,2013.00 3830.91,2021.00 3830.91,2021.00
             3830.91,2021.00 3827.60,2029.00 3827.60,2029.00
             3822.61,2039.41 3824.14,2032.54 3821.25,2045.00
             3820.44,2049.95 3819.01,2053.91 3821.25,2059.00
             3824.24,2067.28 3835.05,2079.65 3843.00,2083.62
             3848.48,2086.36 3850.93,2085.43 3855.00,2087.57
             3855.00,2087.57 3873.00,2099.53 3873.00,2099.53
             3873.00,2099.53 3879.00,2104.78 3879.00,2104.78
             3885.98,2110.44 3893.39,2107.29 3895.61,2117.00
             3898.28,2128.67 3888.19,2135.72 3881.00,2143.00
             3874.56,2149.52 3864.30,2164.86 3858.41,2173.00
             3853.03,2180.42 3850.12,2181.13 3850.00,2191.00
             3849.95,2195.58 3849.39,2202.12 3852.51,2205.77
             3855.15,2208.86 3858.26,2208.95 3862.00,2209.00
             3875.77,2209.18 3874.79,2209.63 3888.00,2205.97
             3892.77,2204.65 3905.15,2197.85 3909.00,2194.67
             3909.00,2194.67 3920.00,2184.18 3920.00,2184.18
             3920.00,2184.18 3931.00,2175.90 3931.00,2175.90
             3934.56,2172.67 3940.49,2166.02 3944.00,2163.70
             3947.85,2161.15 3950.43,2161.56 3954.00,2159.88
             3960.60,2156.79 3962.56,2153.41 3971.00,2153.04
             3974.02,2152.91 3977.18,2153.04 3980.00,2154.23
             3985.56,2156.55 3997.39,2168.00 3998.59,2174.00
             3999.90,2180.50 3993.14,2188.44 3992.96,2200.00
             3992.96,2200.00 3992.96,2221.00 3992.96,2221.00
             3992.96,2221.00 3991.20,2230.00 3991.20,2230.00
             3990.77,2234.53 3992.32,2236.85 3992.99,2241.00
             3992.99,2241.00 3992.99,2250.00 3992.99,2250.00
             3994.38,2261.11 3999.36,2271.65 4012.00,2270.96
             4017.23,2270.67 4025.18,2266.08 4028.30,2261.90
             4028.30,2261.90 4032.64,2254.00 4032.64,2254.00
             4035.30,2250.18 4038.88,2247.70 4040.35,2243.00
             4040.35,2243.00 4041.32,2234.00 4041.32,2234.00
             4041.32,2234.00 4043.48,2226.00 4043.48,2226.00
             4043.48,2226.00 4044.39,2219.00 4044.39,2219.00
             4045.24,2215.27 4047.21,2213.28 4048.31,2210.00
             4048.31,2210.00 4050.55,2200.00 4050.55,2200.00
             4052.13,2195.56 4053.90,2193.78 4056.05,2190.00
             4056.05,2190.00 4059.99,2182.00 4059.99,2182.00
             4062.38,2178.18 4075.18,2165.21 4079.00,2163.14
             4081.62,2161.71 4085.05,2161.14 4088.00,2161.04
             4099.16,2160.67 4102.64,2166.96 4110.00,2173.96
             4115.48,2179.18 4118.50,2180.35 4124.00,2184.67
             4133.72,2192.31 4138.64,2197.84 4152.00,2198.19
             4152.00,2198.19 4166.00,2198.19 4166.00,2198.19
             4169.78,2199.25 4171.71,2201.30 4175.00,2202.73
             4175.00,2202.73 4186.00,2205.49 4186.00,2205.49
             4189.82,2206.25 4199.67,2206.05 4204.00,2206.00
             4206.50,2205.96 4208.63,2205.96 4211.00,2204.99
             4227.28,2198.37 4218.11,2176.74 4221.79,2164.00
             4223.77,2157.12 4228.43,2153.31 4232.63,2148.00
             4232.63,2148.00 4236.78,2142.09 4236.78,2142.09
             4242.02,2135.53 4246.03,2137.79 4253.00,2135.95
             4259.08,2134.34 4265.31,2129.01 4267.39,2123.00
             4269.24,2117.63 4266.52,2106.11 4264.25,2101.00
             4261.99,2095.90 4257.55,2092.44 4262.65,2085.00
             4264.69,2082.03 4275.02,2071.76 4278.00,2069.38
             4282.53,2065.74 4283.33,2066.36 4289.00,2060.96
             4289.00,2060.96 4311.18,2034.00 4311.18,2034.00
             4311.18,2034.00 4326.00,2019.18 4326.00,2019.18
             4326.00,2019.18 4332.58,2013.68 4332.58,2013.68
             4335.92,2009.95 4335.34,2006.46 4337.16,2003.00
             4339.16,1999.19 4343.00,1996.66 4344.83,1993.00
             4346.76,1989.12 4345.26,1985.95 4347.14,1981.00
             4348.82,1976.59 4352.03,1973.84 4353.72,1970.00
             4355.36,1966.31 4355.05,1961.04 4355.00,1957.00
             4355.00,1957.00 4353.00,1940.00 4353.00,1940.00
             4353.00,1940.00 4353.00,1918.00 4353.00,1918.00
             4352.86,1906.74 4349.66,1905.81 4347.17,1897.00
             4345.01,1889.36 4346.65,1884.52 4345.79,1879.00
             4345.03,1874.09 4342.28,1871.91 4341.34,1867.00
             4341.34,1867.00 4340.68,1856.00 4340.68,1856.00
             4340.68,1856.00 4338.18,1846.00 4338.18,1846.00
             4337.57,1840.97 4338.76,1838.18 4336.65,1833.00
             4336.65,1833.00 4328.38,1817.00 4328.38,1817.00
             4328.38,1817.00 4319.34,1802.00 4319.34,1802.00
             4317.20,1796.42 4318.55,1791.76 4317.57,1788.00
             4317.57,1788.00 4311.47,1776.00 4311.47,1776.00
             4311.47,1776.00 4309.32,1768.00 4309.32,1768.00
             4309.32,1768.00 4305.63,1760.00 4305.63,1760.00
             4305.63,1760.00 4303.92,1754.00 4303.92,1754.00
             4301.58,1748.75 4296.89,1745.66 4293.99,1741.00
             4293.99,1741.00 4289.10,1730.00 4289.10,1730.00
             4289.10,1730.00 4280.42,1716.00 4280.42,1716.00
             4278.68,1712.52 4278.51,1709.87 4276.03,1706.00
             4276.03,1706.00 4264.85,1693.00 4264.85,1693.00
             4264.85,1693.00 4252.87,1670.00 4252.87,1670.00
             4251.45,1666.69 4250.09,1661.88 4248.19,1659.02
             4244.78,1653.88 4238.55,1652.06 4231.53,1643.00
             4231.53,1643.00 4217.66,1624.00 4217.66,1624.00
             4217.66,1624.00 4205.79,1609.00 4205.79,1609.00
             4205.79,1609.00 4198.61,1597.00 4198.61,1597.00
             4198.61,1597.00 4186.67,1584.00 4186.67,1584.00
             4177.80,1572.74 4179.45,1570.41 4175.44,1565.00
             4175.44,1565.00 4159.22,1548.00 4159.22,1548.00
             4155.95,1544.07 4156.23,1542.55 4154.01,1539.00
             4154.01,1539.00 4146.78,1530.00 4146.78,1530.00
             4146.78,1530.00 4138.00,1518.00 4138.00,1518.00
             4135.84,1514.36 4136.17,1511.63 4134.27,1509.73
             4131.46,1506.93 4129.01,1509.43 4122.00,1502.95
             4122.00,1502.95 4094.00,1475.21 4094.00,1475.21
             4094.00,1475.21 4077.00,1464.66 4077.00,1464.66
             4077.00,1464.66 4071.00,1461.92 4071.00,1461.92
             4071.00,1461.92 4062.00,1454.94 4062.00,1454.94
             4062.00,1454.94 4046.00,1445.16 4046.00,1445.16
             4046.00,1445.16 4029.00,1440.22 4029.00,1440.22
             4029.00,1440.22 4016.00,1434.49 4016.00,1434.49
             4016.00,1434.49 4009.00,1430.98 4009.00,1430.98
             4004.72,1429.26 4004.27,1430.22 3999.00,1427.25
             3999.00,1427.25 3981.00,1416.72 3981.00,1416.72
             3979.02,1416.02 3977.07,1416.03 3975.00,1416.00
             3959.86,1415.80 3960.92,1413.12 3952.00,1413.00
             3948.05,1412.95 3942.72,1413.30 3939.00,1412.28
             3934.16,1410.96 3932.40,1408.30 3927.00,1407.33
             3927.00,1407.33 3919.00,1406.68 3919.00,1406.68
             3919.00,1406.68 3909.00,1404.09 3909.00,1404.09
             3909.00,1404.09 3883.00,1404.09 3883.00,1404.09
             3869.28,1403.98 3850.69,1396.11 3842.00,1396.00
             3825.21,1395.80 3831.69,1394.21 3819.00,1391.52
             3819.00,1391.52 3808.00,1390.36 3808.00,1390.36
             3800.85,1388.31 3801.63,1385.13 3792.00,1384.92
             3792.00,1384.92 3762.00,1384.92 3762.00,1384.92
             3762.00,1384.92 3751.00,1382.36 3751.00,1382.36
             3746.37,1381.83 3741.26,1384.98 3730.00,1385.00
             3730.00,1385.00 3687.00,1385.00 3687.00,1385.00
             3676.18,1385.02 3678.86,1386.37 3671.00,1387.68
             3671.00,1387.68 3659.00,1388.38 3659.00,1388.38
             3659.00,1388.38 3652.00,1390.47 3652.00,1390.47
             3652.00,1390.47 3634.00,1393.00 3634.00,1393.00
             3623.16,1393.13 3618.54,1393.62 3608.00,1396.90
             3608.00,1396.90 3597.00,1400.33 3597.00,1400.33
             3590.59,1401.69 3586.82,1400.15 3581.00,1402.10
             3572.86,1404.84 3569.11,1409.88 3564.00,1411.86
             3559.28,1413.68 3547.59,1412.93 3542.00,1413.00
             3534.97,1413.10 3535.11,1414.25 3529.00,1415.55
             3529.00,1415.55 3512.00,1419.77 3512.00,1419.77
             3512.00,1419.77 3504.00,1422.90 3504.00,1422.90
             3504.00,1422.90 3497.00,1424.72 3497.00,1424.72
             3492.84,1426.40 3490.76,1429.84 3486.00,1431.35
             3486.00,1431.35 3471.00,1434.79 3471.00,1434.79
             3467.56,1435.29 3464.39,1434.61 3461.04,1436.31
             3457.48,1438.12 3455.90,1441.47 3451.99,1444.61
             3451.99,1444.61 3442.00,1450.63 3442.00,1450.63
             3442.00,1450.63 3433.00,1457.87 3433.00,1457.87
             3433.00,1457.87 3425.00,1461.99 3425.00,1461.99
             3421.56,1464.10 3420.04,1466.13 3416.00,1468.09
             3416.00,1468.09 3402.00,1473.53 3402.00,1473.53
             3395.33,1477.34 3390.91,1484.00 3385.00,1488.73
             3381.72,1491.35 3380.18,1491.35 3377.00,1493.22
             3377.00,1493.22 3364.17,1501.63 3364.17,1501.63
             3364.17,1501.63 3349.00,1517.00 3349.00,1517.00
             3349.00,1517.00 3323.09,1543.00 3323.09,1543.00
             3323.09,1543.00 3315.62,1552.61 3315.62,1552.61
             3312.80,1555.34 3301.75,1559.17 3295.43,1566.32
             3292.73,1569.38 3292.42,1573.80 3289.04,1579.00
             3289.04,1579.00 3280.30,1590.00 3280.30,1590.00
             3277.90,1594.47 3279.46,1596.72 3274.52,1603.00
             3274.52,1603.00 3258.32,1620.00 3258.32,1620.00
             3252.61,1626.86 3251.44,1631.35 3243.99,1639.00
             3239.94,1643.15 3226.18,1656.00 3224.17,1660.00
             3222.90,1662.53 3222.84,1666.91 3222.10,1670.00
             3222.10,1670.00 3218.32,1683.00 3218.32,1683.00
             3217.80,1686.14 3218.32,1690.29 3217.26,1692.98
             3215.18,1698.29 3210.55,1698.25 3207.56,1702.13
             3204.60,1705.98 3205.42,1710.75 3204.58,1714.00
             3203.20,1719.32 3201.15,1718.10 3200.79,1726.00
             3200.79,1726.00 3200.79,1747.00 3200.79,1747.00
             3199.54,1750.80 3196.79,1752.86 3194.69,1756.00
             3190.87,1761.73 3187.52,1768.55 3180.91,1771.84
             3173.61,1775.47 3167.10,1765.87 3162.08,1773.15
             3162.08,1773.15 3153.37,1794.00 3153.37,1794.00
             3149.48,1800.86 3145.29,1803.86 3141.57,1809.00
             3141.57,1809.00 3133.46,1825.00 3133.46,1825.00
             3130.22,1832.72 3130.01,1836.88 3130.00,1845.00
             3129.98,1859.82 3122.07,1871.45 3121.91,1885.00
             3121.91,1885.00 3121.91,1906.00 3121.91,1906.00
             3121.07,1912.04 3119.11,1911.70 3119.00,1920.00
             3119.00,1920.00 3119.00,1966.00 3119.00,1966.00
             3119.00,1966.00 3124.00,1997.00 3124.00,1997.00
             3124.06,2009.14 3124.82,2004.10 3126.62,2013.00
             3126.62,2013.00 3127.47,2020.00 3127.47,2020.00
             3127.47,2020.00 3129.79,2029.00 3129.79,2029.00
             3129.79,2029.00 3130.47,2037.00 3130.47,2037.00
             3132.38,2047.15 3135.98,2044.99 3136.09,2060.00
             3136.09,2060.00 3136.09,2079.00 3136.09,2079.00
             3136.09,2079.00 3138.48,2088.00 3138.48,2088.00
             3138.48,2088.00 3140.40,2100.00 3140.40,2100.00
             3140.81,2103.43 3139.36,2106.60 3139.05,2110.00
             3139.05,2110.00 3139.05,2119.00 3139.05,2119.00
             3139.07,2132.83 3144.32,2135.60 3146.46,2143.00
             3146.46,2143.00 3149.67,2155.00 3149.67,2155.00
             3150.90,2161.85 3149.96,2162.42 3153.09,2170.00
             3156.80,2178.96 3160.86,2179.34 3161.00,2191.00
             3161.00,2191.00 3161.00,2199.00 3161.00,2199.00
             3160.99,2201.23 3161.07,2203.90 3160.26,2206.00
             3157.15,2214.14 3147.51,2215.49 3140.00,2213.37
             3133.37,2211.49 3133.83,2209.12 3124.00,2209.00
             3124.00,2209.00 2965.00,2209.00 2965.00,2209.00
             2961.31,2209.01 2958.54,2208.84 2955.00,2210.21
             2952.13,2211.32 2949.19,2213.65 2946.00,2213.37
             2943.10,2213.12 2940.44,2210.68 2937.00,2209.65
             2937.00,2209.65 2926.00,2208.35 2926.00,2208.35
             2919.79,2206.49 2921.06,2204.13 2912.00,2204.00
             2904.05,2203.90 2892.25,2205.34 2886.41,2211.39
             2884.09,2213.79 2883.61,2216.76 2881.36,2220.00
             2879.04,2223.33 2875.37,2226.25 2873.85,2230.00
             2872.69,2232.87 2873.00,2237.81 2873.00,2241.00
             2872.99,2245.37 2872.90,2249.85 2871.34,2254.00
             2870.03,2257.48 2867.95,2259.44 2867.28,2263.00
             2866.44,2267.45 2868.58,2271.63 2868.91,2276.00
             2869.43,2282.97 2867.17,2284.89 2867.29,2289.00
             2867.45,2295.14 2870.95,2299.78 2872.91,2305.00
             2874.89,2310.24 2871.70,2313.32 2874.02,2318.00
             2875.34,2320.66 2879.78,2324.78 2882.00,2327.00
             2886.18,2331.18 2902.43,2345.49 2907.00,2347.83
             2907.00,2347.83 2915.00,2350.45 2915.00,2350.45
             2918.44,2352.17 2920.83,2355.12 2924.00,2356.26
             2929.65,2358.29 2933.05,2353.62 2937.00,2353.82
             2940.02,2353.97 2947.30,2360.35 2950.00,2362.51
             2959.00,2369.72 2958.46,2373.50 2962.21,2376.15
             2964.64,2377.87 2967.49,2377.77 2969.90,2379.16
             2972.77,2380.81 2973.51,2383.13 2976.21,2384.87
             2978.39,2386.28 2981.10,2386.43 2983.28,2389.22
             2988.64,2396.10 2983.68,2402.33 2976.00,2402.90
             2967.49,2403.54 2965.99,2399.69 2955.00,2400.02
             2944.89,2400.31 2947.22,2405.53 2941.78,2412.00
             2941.78,2412.00 2926.01,2426.00 2926.01,2426.00
             2926.01,2426.00 2915.91,2437.26 2915.91,2437.26
             2912.07,2439.84 2907.29,2438.54 2903.00,2439.53
             2896.95,2440.92 2893.33,2444.68 2890.00,2446.07
             2886.28,2447.63 2882.85,2446.51 2879.00,2447.57
             2879.00,2447.57 2867.00,2453.30 2867.00,2453.30
             2867.00,2453.30 2851.00,2458.32 2851.00,2458.32
             2851.00,2458.32 2842.00,2459.96 2842.00,2459.96
             2842.00,2459.96 2830.00,2466.28 2830.00,2466.28
             2825.90,2467.72 2820.61,2466.32 2816.00,2467.63
             2811.46,2468.92 2806.61,2472.65 2803.00,2474.01
             2799.10,2475.48 2796.15,2474.61 2792.00,2476.57
             2792.00,2476.57 2783.00,2482.35 2783.00,2482.35
             2783.00,2482.35 2762.00,2487.68 2762.00,2487.68
             2757.73,2489.40 2754.22,2493.29 2750.00,2495.64
             2743.93,2499.01 2741.70,2497.15 2736.00,2500.00
             2730.26,2502.87 2727.55,2507.23 2723.00,2510.00
             2717.50,2513.34 2708.41,2514.31 2704.00,2516.55
             2698.85,2519.18 2694.75,2523.22 2690.00,2526.36
             2685.25,2529.51 2682.78,2528.59 2679.00,2530.85
             2679.00,2530.85 2662.00,2543.39 2662.00,2543.39
             2662.00,2543.39 2647.00,2549.19 2647.00,2549.19
             2647.00,2549.19 2626.00,2561.21 2626.00,2561.21
             2620.88,2564.34 2618.03,2568.63 2614.00,2571.30
             2609.35,2574.38 2606.52,2573.12 2602.00,2576.43
             2598.32,2579.12 2595.43,2583.26 2591.00,2586.01
             2591.00,2586.01 2572.00,2595.51 2572.00,2595.51
             2572.00,2595.51 2562.00,2604.83 2562.00,2604.83
             2562.00,2604.83 2550.00,2613.53 2550.00,2613.53
             2550.00,2613.53 2542.00,2620.36 2542.00,2620.36
             2537.21,2623.76 2533.78,2623.70 2530.00,2626.00
             2526.18,2628.33 2522.60,2632.68 2519.00,2635.68
             2519.00,2635.68 2504.00,2646.32 2504.00,2646.32
             2504.00,2646.32 2477.00,2672.90 2477.00,2672.90
             2477.00,2672.90 2467.00,2680.33 2467.00,2680.33
             2467.00,2680.33 2458.00,2688.67 2458.00,2688.67
             2458.00,2688.67 2450.00,2694.38 2450.00,2694.38
             2450.00,2694.38 2428.04,2714.00 2428.04,2714.00
             2428.04,2714.00 2411.82,2735.00 2411.82,2735.00
             2411.82,2735.00 2395.51,2752.00 2395.51,2752.00
             2392.10,2756.87 2394.11,2759.11 2390.57,2764.00
             2390.57,2764.00 2376.96,2781.00 2376.96,2781.00
             2376.96,2781.00 2359.42,2799.00 2359.42,2799.00
             2359.42,2799.00 2354.50,2808.00 2354.50,2808.00
             2354.50,2808.00 2347.34,2817.00 2347.34,2817.00
             2347.34,2817.00 2343.30,2824.90 2343.30,2824.90
             2340.52,2828.68 2336.65,2829.44 2332.64,2835.00
             2329.59,2839.23 2329.54,2842.07 2327.58,2846.00
             2327.58,2846.00 2322.58,2854.00 2322.58,2854.00
             2322.58,2854.00 2312.82,2868.00 2312.82,2868.00
             2312.82,2868.00 2301.63,2880.00 2301.63,2880.00
             2301.63,2880.00 2282.56,2914.00 2282.56,2914.00
             2277.77,2921.36 2269.62,2927.79 2263.47,2938.00
             2260.95,2942.19 2261.58,2944.65 2259.84,2948.00
             2259.84,2948.00 2254.27,2956.00 2254.27,2956.00
             2254.27,2956.00 2249.04,2967.00 2249.04,2967.00
             2249.04,2967.00 2243.31,2975.00 2243.31,2975.00
             2241.52,2978.44 2242.19,2980.85 2239.77,2985.00
             2239.77,2985.00 2223.17,3007.00 2223.17,3007.00
             2223.17,3007.00 2219.66,3019.00 2219.66,3019.00
             2219.66,3019.00 2213.22,3035.00 2213.22,3035.00
             2213.22,3035.00 2204.83,3048.00 2204.83,3048.00
             2204.83,3048.00 2200.65,3061.00 2200.65,3061.00
             2200.65,3061.00 2194.62,3072.00 2194.62,3072.00
             2194.62,3072.00 2190.08,3085.00 2190.08,3085.00
             2190.08,3085.00 2187.10,3092.00 2187.10,3092.00
             2187.10,3092.00 2184.32,3101.00 2184.32,3101.00
             2184.32,3101.00 2176.41,3113.00 2176.41,3113.00
             2176.41,3113.00 2173.35,3123.00 2173.35,3123.00
             2170.18,3130.10 2166.15,3129.08 2165.84,3140.00
             2165.84,3140.00 2165.84,3152.00 2165.84,3152.00
             2165.84,3152.00 2156.35,3181.00 2156.35,3181.00
             2156.35,3181.00 2153.96,3190.00 2153.96,3190.00
             2151.02,3199.66 2149.05,3200.81 2149.00,3212.00
             2148.98,3215.63 2149.31,3219.57 2148.01,3223.00
             2144.76,3231.57 2141.06,3229.85 2140.91,3242.00
             2140.91,3242.00 2140.91,3261.00 2140.91,3261.00
             2140.06,3267.22 2138.11,3267.34 2138.00,3276.00
             2138.00,3276.00 2138.00,3319.00 2138.00,3319.00
             2138.18,3333.40 2145.81,3329.38 2146.00,3343.00
             2146.00,3343.00 2146.00,3357.00 2146.00,3357.00
             2146.01,3361.20 2145.92,3365.09 2147.77,3369.00
             2149.62,3372.94 2152.47,3374.88 2153.97,3379.00
             2155.63,3383.56 2154.28,3387.49 2156.02,3391.00
             2156.02,3391.00 2161.28,3398.00 2161.28,3398.00
             2163.73,3401.85 2163.07,3404.61 2167.45,3412.00
             2167.45,3412.00 2183.67,3435.00 2183.67,3435.00
             2187.24,3441.16 2185.00,3443.66 2187.17,3448.00
             2189.46,3452.57 2197.40,3458.45 2200.27,3463.00
             2202.82,3467.05 2201.89,3470.68 2205.35,3477.00
             2205.35,3477.00 2220.90,3498.00 2220.90,3498.00
             2220.90,3498.00 2229.17,3512.00 2229.17,3512.00
             2230.52,3514.61 2230.77,3516.29 2232.65,3519.00
             2232.65,3519.00 2260.61,3548.00 2260.61,3548.00
             2264.37,3552.85 2263.73,3555.69 2268.21,3561.00
             2268.21,3561.00 2292.61,3586.00 2292.61,3586.00
             2296.35,3590.77 2296.02,3593.36 2301.10,3599.00
             2301.10,3599.00 2330.00,3627.82 2330.00,3627.82
             2330.00,3627.82 2338.00,3634.18 2338.00,3634.18
             2338.00,3634.18 2361.00,3656.82 2361.00,3656.82
             2361.00,3656.82 2372.00,3665.18 2372.00,3665.18
             2372.00,3665.18 2386.00,3678.62 2386.00,3678.62
             2386.00,3678.62 2395.00,3685.18 2395.00,3685.18
             2395.00,3685.18 2417.00,3706.62 2417.00,3706.62
             2417.00,3706.62 2431.00,3716.90 2431.00,3716.90
             2431.00,3716.90 2436.96,3720.63 2436.96,3720.63
             2436.96,3720.63 2444.09,3727.16 2444.09,3727.16
             2446.55,3728.81 2448.91,3729.00 2451.96,3731.42
             2457.45,3735.76 2458.43,3741.38 2465.01,3746.21
             2473.01,3752.09 2475.67,3750.16 2481.00,3751.56
             2481.00,3751.56 2495.00,3758.08 2495.00,3758.08
             2500.47,3761.28 2508.53,3771.29 2514.00,3775.77
             2519.40,3780.20 2521.95,3778.36 2527.00,3781.70
             2531.85,3784.91 2537.45,3792.37 2540.17,3794.27
             2543.05,3796.28 2544.92,3795.62 2548.99,3798.34
             2553.42,3801.31 2557.61,3806.60 2562.00,3808.70
             2562.00,3808.70 2569.00,3810.79 2569.00,3810.79
             2569.00,3810.79 2586.00,3817.73 2586.00,3817.73
             2586.00,3817.73 2604.00,3832.35 2604.00,3832.35
             2608.74,3835.61 2610.82,3834.24 2616.00,3836.91
             2616.00,3836.91 2632.00,3847.93 2632.00,3847.93
             2632.00,3847.93 2646.00,3853.41 2646.00,3853.41
             2650.52,3855.89 2652.67,3859.20 2656.00,3861.26
             2659.32,3863.33 2661.56,3862.73 2665.00,3864.45
             2665.00,3864.45 2674.00,3870.35 2674.00,3870.35
             2674.00,3870.35 2695.00,3875.50 2695.00,3875.50
             2699.37,3876.90 2701.80,3880.31 2706.00,3881.99
             2710.36,3883.74 2713.59,3882.31 2719.00,3883.78
             2719.00,3883.78 2737.00,3890.47 2737.00,3890.47
             2737.00,3890.47 2745.00,3891.18 2745.00,3891.18
             2745.00,3891.18 2761.00,3894.87 2761.00,3894.87
             2766.44,3896.79 2764.11,3897.87 2777.00,3901.27
             2784.88,3903.34 2793.44,3903.98 2801.00,3907.21
             2807.59,3910.02 2818.55,3917.40 2825.00,3916.80
             2825.00,3916.80 2833.00,3915.45 2833.00,3915.45
             2835.89,3915.67 2838.06,3917.48 2841.00,3918.36
             2841.00,3918.36 2848.00,3919.53 2848.00,3919.53
             2854.70,3921.06 2852.31,3921.96 2861.00,3922.00
             2861.00,3922.00 2882.00,3922.00 2882.00,3922.00
             2895.56,3922.02 2892.94,3924.87 2900.00,3926.59
             2900.00,3926.59 2913.00,3927.17 2913.00,3927.17
             2919.77,3927.85 2921.53,3929.90 2929.00,3930.00
             2929.00,3930.00 2938.00,3930.00 2938.00,3930.00
             2942.63,3930.01 2947.80,3930.06 2952.00,3932.30
             2956.40,3934.64 2959.41,3938.88 2965.00,3940.35
             2965.00,3940.35 2982.00,3939.00 2982.00,3939.00
             2982.00,3939.00 3023.00,3939.00 3023.00,3939.00
             3036.11,3939.02 3033.15,3941.94 3045.00,3942.09
             3045.00,3942.09 3063.00,3942.09 3063.00,3942.09
             3063.00,3942.09 3074.00,3944.80 3074.00,3944.80
             3080.24,3945.40 3084.10,3941.99 3089.00,3942.30
             3094.04,3942.62 3093.35,3944.98 3105.00,3945.00
             3105.00,3945.00 3142.00,3945.00 3142.00,3945.00
             3154.43,3945.02 3161.75,3949.98 3173.00,3950.00
             3173.00,3950.00 3292.00,3950.00 3292.00,3950.00
             3302.35,3949.98 3299.47,3948.99 3308.00,3946.10
             3308.00,3946.10 3321.00,3942.61 3321.00,3942.61
             3324.89,3941.63 3334.49,3942.02 3339.00,3942.00
             3351.77,3941.93 3349.71,3937.57 3357.00,3934.73
             3357.00,3934.73 3382.00,3929.37 3382.00,3929.37
             3390.86,3926.76 3396.83,3922.13 3407.00,3922.00
             3410.10,3921.97 3414.07,3922.23 3417.00,3921.35
             3420.77,3920.23 3422.74,3917.94 3427.00,3917.22
             3432.27,3916.34 3437.88,3918.11 3443.00,3915.55
             3447.92,3913.09 3450.73,3908.16 3456.00,3906.01
             3459.33,3904.64 3469.10,3903.24 3473.00,3902.54
             3473.00,3902.54 3493.00,3897.67 3493.00,3897.67
             3496.00,3897.02 3499.14,3896.96 3502.00,3895.78
             3511.43,3891.86 3513.93,3884.75 3519.09,3880.72
             3523.98,3876.91 3526.95,3878.37 3532.00,3875.12
             3532.00,3875.12 3544.00,3864.99 3544.00,3864.99
             3544.00,3864.99 3556.00,3858.71 3556.00,3858.71
             3559.31,3857.46 3563.16,3857.79 3569.00,3854.03
             3575.35,3849.95 3579.44,3842.91 3588.00,3838.09
             3595.00,3834.16 3597.31,3835.75 3600.82,3833.26
             3605.40,3830.02 3613.03,3816.40 3619.00,3811.13
             3625.88,3805.07 3627.57,3809.04 3634.00,3803.77
             3634.00,3803.77 3660.63,3777.00 3660.63,3777.00
             3660.63,3777.00 3671.21,3762.04 3671.21,3762.04
             3674.48,3758.40 3677.32,3757.08 3679.79,3754.68
             3679.79,3754.68 3693.35,3739.00 3693.35,3739.00
             3696.73,3734.12 3695.88,3730.66 3698.88,3726.00
             3701.90,3721.30 3707.08,3718.02 3709.35,3713.00
             3711.01,3709.32 3711.96,3700.61 3715.70,3695.00
             3715.70,3695.00 3727.66,3682.00 3727.66,3682.00
             3732.47,3676.06 3732.17,3671.90 3734.72,3668.00
             3737.06,3664.43 3740.39,3662.49 3742.15,3659.83
             3744.59,3656.13 3743.34,3652.96 3746.23,3648.00
             3748.08,3644.80 3750.49,3642.81 3752.59,3640.00
             3752.59,3640.00 3761.83,3625.00 3761.83,3625.00
             3763.71,3621.14 3762.34,3617.85 3765.09,3613.00
             3767.31,3609.07 3771.03,3606.56 3773.31,3602.00
             3775.70,3597.24 3774.25,3594.86 3776.47,3589.00
             3776.47,3589.00 3781.98,3576.00 3781.98,3576.00
             3781.98,3576.00 3785.01,3570.00 3785.01,3570.00
             3785.01,3570.00 3786.87,3561.00 3786.87,3561.00
             3786.87,3561.00 3791.29,3552.00 3791.29,3552.00
             3791.29,3552.00 3795.52,3537.00 3795.52,3537.00
             3796.67,3533.44 3800.31,3522.72 3801.99,3520.00
             3804.32,3516.25 3807.66,3513.77 3809.55,3510.00
             3811.94,3505.22 3809.93,3502.68 3813.34,3497.00
             3813.34,3497.00 3827.30,3477.00 3827.30,3477.00
             3829.07,3472.80 3828.67,3468.34 3829.30,3464.00
             3829.30,3464.00 3831.76,3451.00 3831.76,3451.00
             3831.76,3451.00 3833.68,3444.00 3833.68,3444.00
             3833.68,3444.00 3834.39,3433.00 3834.39,3433.00
             3836.67,3422.84 3844.98,3418.66 3845.00,3404.00
             3845.00,3404.00 3845.00,3377.00 3845.00,3377.00
             3845.13,3366.65 3847.98,3368.74 3848.00,3356.00
             3848.00,3356.00 3848.00,3272.00 3848.00,3272.00
             3848.01,3263.71 3849.36,3261.57 3849.41,3258.00
             3849.41,3258.00 3848.80,3250.00 3848.80,3250.00
             3849.05,3246.43 3849.92,3246.33 3849.91,3240.00
             3849.91,3240.00 3849.91,3227.00 3849.91,3227.00
             3849.24,3221.46 3848.09,3221.45 3848.00,3214.00
             3847.82,3198.17 3849.89,3197.68 3850.00,3189.00
             3850.04,3185.06 3849.68,3176.34 3850.56,3173.00
             3851.94,3167.67 3855.87,3164.94 3855.69,3160.00
             3855.58,3157.05 3852.23,3149.46 3851.21,3146.00
             3849.69,3140.85 3850.06,3138.16 3850.00,3133.00
             3850.00,3133.00 3848.05,3117.00 3848.05,3117.00
             3848.05,3117.00 3848.05,3096.00 3848.05,3096.00
             3848.49,3091.04 3849.84,3090.21 3849.99,3084.00
             3850.10,3079.32 3848.59,3069.75 3847.62,3065.00
             3846.28,3058.36 3845.05,3060.74 3845.00,3051.00
             3845.00,3051.00 3845.00,3027.00 3845.00,3027.00
             3844.98,3011.71 3839.03,3014.40 3838.79,2998.00
             3838.99,2994.71 3839.23,2985.66 3838.79,2983.00
             3837.57,2978.85 3834.97,2976.88 3834.21,2972.00
             3834.21,2972.00 3833.47,2961.00 3833.47,2961.00
             3833.47,2961.00 3829.39,2950.00 3829.39,2950.00
             3828.51,2946.01 3828.96,2941.58 3827.13,2937.00
             3824.66,2930.86 3814.60,2921.68 3812.23,2916.00
             3810.46,2911.79 3811.62,2909.51 3809.53,2904.00
             3809.53,2904.00 3801.65,2888.00 3801.65,2888.00
             3800.57,2884.41 3801.49,2878.98 3799.22,2872.00
             3797.02,2865.25 3793.44,2864.16 3790.44,2854.00
             3790.44,2854.00 3782.48,2825.00 3782.48,2825.00
             3782.48,2825.00 3776.15,2815.00 3776.15,2815.00
             3774.29,2811.28 3775.05,2808.61 3771.58,2804.00
             3768.21,2799.51 3761.67,2794.73 3759.31,2790.00
             3760.94,2793.26 3752.47,2771.50 3753.50,2775.00
             3752.73,2772.38 3753.11,2769.81 3751.69,2767.09
             3749.81,2763.50 3745.70,2761.56 3742.84,2757.00
             3742.84,2757.00 3736.89,2744.00 3736.89,2744.00
             3736.89,2744.00 3727.26,2727.00 3727.26,2727.00
             3727.26,2727.00 3722.95,2715.00 3722.95,2715.00
             3722.95,2715.00 3717.61,2707.00 3717.61,2707.00
             3717.61,2707.00 3713.78,2699.00 3713.78,2699.00
             3713.78,2699.00 3709.07,2692.00 3709.07,2692.00
             3707.08,2688.34 3707.42,2685.86 3705.42,2683.18
             3703.30,2680.36 3699.36,2678.74 3696.43,2674.96
             3694.95,2673.06 3689.86,2661.60 3684.37,2655.21
             3680.97,2651.26 3676.62,2650.88 3672.00,2647.45
             3672.00,2647.45 3656.00,2632.57 3656.00,2632.57
             3651.36,2629.24 3648.77,2630.21 3645.00,2628.07
             3645.00,2628.07 3635.00,2620.10 3635.00,2620.10
             3629.18,2616.23 3626.58,2616.31 3620.00,2610.70
             3620.00,2610.70 3581.00,2572.10 3581.00,2572.10
             3581.00,2572.10 3572.09,2565.61 3572.09,2565.61
             3572.09,2565.61 3564.96,2558.10 3564.96,2558.10
             3564.96,2558.10 3555.00,2550.67 3555.00,2550.67
             3555.00,2550.67 3544.00,2540.27 3544.00,2540.27
             3539.58,2536.74 3537.76,2537.73 3533.00,2533.78
             3525.67,2527.69 3522.48,2521.20 3520.61,2519.74
             3517.46,2517.27 3513.99,2518.56 3510.00,2517.35
             3510.00,2517.35 3499.00,2511.76 3499.00,2511.76
             3489.33,2507.83 3490.60,2511.71 3481.00,2504.21
             3476.49,2500.68 3475.10,2501.38 3472.09,2499.28
             3472.09,2499.28 3464.96,2492.32 3464.96,2492.32
             3464.96,2492.32 3459.00,2487.68 3459.00,2487.68
             3452.85,2482.45 3452.68,2479.45 3448.90,2477.09
             3443.74,2473.85 3438.00,2475.84 3434.04,2474.26
             3429.20,2472.33 3420.77,2461.01 3415.99,2457.70
             3412.89,2455.55 3408.04,2454.70 3406.84,2450.90
             3405.81,2447.63 3408.97,2443.52 3410.00,2438.00 Z
           M 3436.00,2387.00
           C 3436.00,2387.00 3434.69,2397.99 3434.69,2397.99
             3434.69,2397.99 3431.00,2408.00 3431.00,2408.00
             3437.44,2402.31 3437.99,2395.05 3438.00,2387.00
             3438.00,2387.00 3436.00,2387.00 3436.00,2387.00 Z
           M 1504.00,3117.00
           C 1504.00,3117.00 1457.00,3127.35 1457.00,3127.35
             1457.00,3127.35 1438.27,3131.93 1438.27,3131.93
             1438.27,3131.93 1432.58,3142.00 1432.58,3142.00
             1432.58,3142.00 1422.00,3168.00 1422.00,3168.00
             1422.00,3168.00 1446.00,3164.20 1446.00,3164.20
             1448.81,3163.66 1454.72,3162.81 1457.00,3161.69
             1460.31,3160.06 1464.09,3155.85 1467.00,3153.28
             1467.00,3153.28 1487.00,3134.99 1487.00,3134.99
             1491.10,3130.99 1502.78,3121.64 1504.00,3117.00 Z
           M 1791.00,3370.00
           C 1791.00,3370.00 1779.77,3396.00 1779.77,3396.00
             1777.49,3400.99 1774.73,3404.52 1779.00,3409.00
             1779.00,3409.00 1788.00,3382.00 1788.00,3382.00
             1788.00,3382.00 1791.00,3370.00 1791.00,3370.00 Z
           M 979.00,3594.00
           C 975.09,3599.56 973.13,3599.94 973.00,3607.00
             973.00,3607.00 973.00,3645.00 973.00,3645.00
             973.00,3645.00 978.27,3609.00 978.27,3609.00
             978.27,3609.00 979.00,3594.00 979.00,3594.00 Z
           M 1477.00,4485.00
           C 1477.00,4485.00 1462.35,4515.00 1462.35,4515.00
             1462.35,4515.00 1457.97,4531.00 1457.97,4531.00
             1457.97,4531.00 1451.60,4547.00 1451.60,4547.00
             1451.60,4547.00 1448.00,4561.00 1448.00,4561.00
             1448.00,4561.00 1470.00,4553.00 1470.00,4553.00
             1470.00,4553.00 1475.95,4504.00 1475.95,4504.00
             1476.52,4498.94 1478.71,4489.45 1477.00,4485.00 Z
           M 750.00,4571.00
           C 750.00,4571.00 748.17,4595.00 748.17,4595.00
             748.17,4595.00 745.00,4635.00 745.00,4635.00
             745.00,4635.00 761.00,4634.01 761.00,4634.01
             763.74,4633.93 767.13,4634.28 769.30,4632.26
             772.23,4629.54 772.95,4622.80 773.00,4619.00
             773.00,4619.00 773.00,4569.00 773.00,4569.00
             773.00,4569.00 750.00,4571.00 750.00,4571.00 Z
           M 1163.00,4579.00
           C 1163.00,4579.00 1155.00,4601.00 1155.00,4601.00
             1155.00,4601.00 1168.00,4601.00 1168.00,4601.00
             1167.26,4595.40 1166.16,4583.22 1163.00,4579.00 Z
           M 2846.00,4797.00
           C 2846.00,4797.00 2831.00,4807.88 2831.00,4807.88
             2831.00,4807.88 2824.64,4814.17 2824.64,4814.17
             2824.64,4814.17 2826.95,4837.00 2826.95,4837.00
             2826.95,4837.00 2835.00,4899.00 2835.00,4899.00
             2835.00,4899.00 2848.00,4899.00 2848.00,4899.00
             2848.00,4899.00 2847.00,4830.00 2847.00,4830.00
             2847.00,4823.44 2847.89,4801.76 2846.00,4797.00 Z" />
</svg>
