<?xml version="1.0" encoding="UTF-8" standalone="no"?>
<!DOCTYPE svg PUBLIC "-//W3C//DTD SVG 20010904//EN"
              "http://www.w3.org/TR/2001/REC-SVG-20010904/DTD/svg10.dtd">

<svg xmlns="http://www.w3.org/2000/svg"
     width="252.977mm" height="207.992mm"
     viewBox="0 0 956 786">
  <path id="Auswahl"
        fill="none" stroke="black" stroke-width="1"
        d="M 90.00,281.00
           C 90.00,281.00 90.00,537.08 90.00,537.08
             90.00,537.08 267.00,537.08 267.00,537.08
             267.00,537.08 276.00,537.08 276.00,537.08
             276.00,537.08 286.00,537.08 286.00,537.08
             286.00,537.08 326.00,537.08 326.00,537.08
             326.00,537.08 443.00,537.08 443.00,537.08
             443.00,537.08 455.00,538.54 455.00,538.54
             455.00,538.54 468.00,536.96 468.00,536.96
             468.00,536.96 628.00,536.96 628.00,536.96
             628.00,536.96 639.00,536.96 639.00,536.96
             639.00,536.96 661.00,525.30 661.00,525.30
             661.00,525.30 701.00,503.30 701.00,503.30
             701.00,503.30 817.00,439.69 817.00,439.69
             817.00,439.69 870.00,411.00 870.00,411.00
             870.00,411.00 846.00,397.22 846.00,397.22
             846.00,397.22 814.00,379.69 814.00,379.69
             814.00,379.69 699.00,316.42 699.00,316.42
             699.00,316.42 656.00,292.86 656.00,292.86
             650.75,289.93 641.95,286.94 640.00,281.00
             640.00,281.00 90.00,281.00 90.00,281.00 Z
           M 274.00,291.00
           C 274.00,291.00 273.00,337.00 273.00,337.00
             273.00,337.00 273.00,415.00 273.00,415.00
             273.00,415.00 257.00,415.00 257.00,415.00
             257.00,415.00 244.00,414.00 244.00,414.00
             244.00,414.00 155.00,414.00 155.00,414.00
             155.00,414.00 121.00,414.00 121.00,414.00
             121.00,414.00 100.00,415.00 100.00,415.00
             100.00,415.00 100.00,291.00 100.00,291.00
             100.00,291.00 274.00,291.00 274.00,291.00 Z
           M 453.00,291.00
           C 449.41,299.50 451.00,318.13 451.00,328.00
             451.00,328.00 451.00,407.00 451.00,407.00
             451.00,409.14 451.38,413.54 449.40,414.97
             447.98,415.86 442.10,415.03 440.00,414.97
             440.00,414.97 414.00,414.97 414.00,414.97
             414.00,414.97 291.00,414.97 291.00,414.97
             288.70,415.00 284.59,415.38 283.02,413.40
             281.85,411.92 282.01,408.82 282.00,407.00
             282.00,407.00 282.00,385.00 282.00,385.00
             282.00,385.00 282.00,324.00 282.00,324.00
             282.00,315.60 282.78,298.33 281.00,291.00
             281.00,291.00 453.00,291.00 453.00,291.00 Z
           M 630.00,291.00
           C 630.00,291.00 630.00,416.00 630.00,416.00
             630.00,416.00 460.00,416.00 460.00,416.00
             460.00,416.00 460.00,334.00 460.00,334.00
             460.00,321.90 461.54,301.91 458.00,291.00
             458.00,291.00 630.00,291.00 630.00,291.00 Z
           M 647.00,298.00
           C 647.00,298.00 685.00,319.31 685.00,319.31
             685.00,319.31 747.00,353.31 747.00,353.31
             747.00,353.31 818.00,392.31 818.00,392.31
             818.00,392.31 851.00,410.00 851.00,410.00
             851.00,410.00 826.00,424.30 826.00,424.30
             826.00,424.30 775.00,452.30 775.00,452.30
             775.00,452.30 682.00,503.31 682.00,503.31
             682.00,503.31 646.00,523.00 646.00,523.00
             646.00,523.00 646.00,365.00 646.00,365.00
             646.00,365.00 646.00,320.00 646.00,320.00
             646.00,320.00 647.00,298.00 647.00,298.00 Z
           M 101.00,422.00
           C 101.00,422.00 122.00,423.00 122.00,423.00
             122.00,423.00 159.00,423.00 159.00,423.00
             159.00,423.00 203.00,423.00 203.00,423.00
             203.00,423.00 220.00,424.00 220.00,424.00
             220.00,424.00 273.00,424.00 273.00,424.00
             273.00,424.00 273.00,527.00 273.00,527.00
             273.00,527.00 100.00,527.00 100.00,527.00
             100.00,527.00 100.00,454.00 100.00,454.00
             100.00,447.55 99.12,426.73 101.00,422.00 Z
           M 451.00,425.00
           C 451.00,425.00 451.00,527.00 451.00,527.00
             451.00,527.00 282.00,527.00 282.00,527.00
             282.00,527.00 282.00,424.00 282.00,424.00
             282.00,424.00 399.00,424.00 399.00,424.00
             399.00,424.00 416.00,425.00 416.00,425.00
             416.00,425.00 451.00,425.00 451.00,425.00 Z
           M 630.00,426.00
           C 630.00,426.00 630.00,527.00 630.00,527.00
             630.00,527.00 460.00,527.00 460.00,527.00
             460.00,527.00 460.00,425.00 460.00,425.00
             460.00,425.00 596.00,425.00 596.00,425.00
             596.00,425.00 612.00,426.00 612.00,426.00
             612.00,426.00 630.00,426.00 630.00,426.00 Z" />
</svg>
