<?xml version="1.0" encoding="UTF-8" standalone="no"?>
<!DOCTYPE svg PUBLIC "-//W3C//DTD SVG 20010904//EN"
              "http://www.w3.org/TR/2001/REC-SVG-20010904/DTD/svg10.dtd">

<svg xmlns="http://www.w3.org/2000/svg"
     width="252.977mm" height="207.992mm"
     viewBox="0 0 956 786">
  <path id="Auswahl"
        fill="none" stroke="black" stroke-width="1"
        d="M 90.00,281.00
           C 90.00,281.00 90.00,537.00 90.00,537.00
             90.00,537.00 255.00,537.00 255.00,537.00
             265.73,537.02 263.97,539.67 268.04,539.48
             271.91,539.31 270.78,537.02 281.00,537.00
             281.00,537.00 443.00,537.00 443.00,537.00
             452.21,537.02 451.69,538.78 455.09,538.76
             458.33,538.74 459.16,537.02 468.00,537.00
             468.00,537.00 584.00,537.00 584.00,537.00
             584.00,537.00 620.00,537.00 620.00,537.00
             625.17,537.00 631.67,535.81 636.00,539.00
             636.00,539.00 700.00,504.31 700.00,504.31
             700.00,504.31 818.00,439.69 818.00,439.69
             818.00,439.69 871.00,411.00 871.00,411.00
             866.93,407.77 857.01,402.92 852.00,400.14
             852.00,400.14 813.00,378.69 813.00,378.69
             813.00,378.69 704.00,318.78 704.00,318.78
             704.00,318.78 658.00,293.58 658.00,293.58
             652.20,290.30 643.16,286.97 640.00,281.00
             640.00,281.00 90.00,281.00 90.00,281.00 Z
           M 261.00,291.00
           C 261.00,291.00 261.00,312.00 261.00,312.00
             261.00,312.00 261.00,327.00 261.00,327.00
             261.00,327.00 261.00,407.00 261.00,407.00
             261.00,407.00 156.00,407.00 156.00,407.00
             142.97,407.00 110.92,406.04 100.00,408.00
             100.00,408.00 100.00,291.00 100.00,291.00
             100.00,291.00 261.00,291.00 261.00,291.00 Z
           M 452.00,291.00
           C 448.42,304.77 450.00,319.81 450.00,334.00
             450.00,334.00 450.00,408.00 450.00,408.00
             450.00,408.00 360.00,408.00 360.00,408.00
             360.00,408.00 345.00,407.00 345.00,407.00
             345.00,407.00 271.00,407.00 271.00,407.00
             271.00,407.00 271.00,314.00 271.00,314.00
             271.00,314.00 270.00,291.00 270.00,291.00
             270.00,291.00 452.00,291.00 452.00,291.00 Z
           M 630.00,291.00
           C 630.00,291.00 630.00,408.00 630.00,408.00
             630.00,408.00 460.00,408.00 460.00,408.00
             460.00,408.00 460.00,329.00 460.00,329.00
             460.00,318.99 461.62,299.58 458.00,291.00
             458.00,291.00 630.00,291.00 630.00,291.00 Z
           M 647.00,299.00
           C 647.00,299.00 692.00,323.69 692.00,323.69
             692.00,323.69 780.00,371.86 780.00,371.86
             780.00,371.86 850.00,410.00 850.00,410.00
             850.00,410.00 823.00,425.42 823.00,425.42
             823.00,425.42 762.00,458.86 762.00,458.86
             762.00,458.86 691.00,497.86 691.00,497.86
             691.00,497.86 646.00,522.00 646.00,522.00
             646.00,522.00 646.00,366.00 646.00,366.00
             646.00,366.00 646.00,321.00 646.00,321.00
             646.00,321.00 647.00,299.00 647.00,299.00 Z
           M 262.96,527.00
           C 262.96,527.00 100.00,527.00 100.00,527.00
             100.00,527.00 100.00,416.00 100.00,416.00
             110.72,417.92 140.37,417.00 153.00,417.00
             153.00,417.00 253.00,417.00 253.00,417.00
             254.99,417.00 258.81,416.77 260.40,418.02
             262.10,419.37 261.96,422.05 262.00,424.00
             262.00,424.00 262.00,443.00 262.00,443.00
             262.00,443.00 262.00,499.00 262.00,499.00
             262.00,499.00 262.96,511.00 262.96,511.00
             262.96,511.00 262.96,527.00 262.96,527.00 Z
           M 450.00,418.00
           C 450.00,418.00 450.00,527.00 450.00,527.00
             450.00,527.00 272.96,527.00 272.96,527.00
             272.96,527.00 272.96,512.00 272.96,512.00
             272.96,512.00 272.00,502.00 272.00,502.00
             272.00,502.00 272.00,417.00 272.00,417.00
             272.00,417.00 344.00,417.00 344.00,417.00
             344.00,417.00 359.00,418.00 359.00,418.00
             359.00,418.00 450.00,418.00 450.00,418.00 Z
           M 630.00,418.00
           C 630.00,418.00 630.00,527.00 630.00,527.00
             630.00,527.00 460.00,527.00 460.00,527.00
             460.00,527.00 460.00,418.00 460.00,418.00
             460.00,418.00 630.00,418.00 630.00,418.00 Z" />
</svg>
